<?xml version="1.0" encoding="utf-8"?>
<!-- Generator: Adobe Illustrator 16.0.3, SVG Export Plug-In . SVG Version: 6.00 Build 0)  -->
<!DOCTYPE svg PUBLIC "-//W3C//DTD SVG 1.1//EN" "http://www.w3.org/Graphics/SVG/1.1/DTD/svg11.dtd">
<svg version="1.1" id="Layer_1" xmlns="http://www.w3.org/2000/svg" xmlns:xlink="http://www.w3.org/1999/xlink" x="0px" y="0px"
	 width="1024px" height="768px" viewBox="0 0 1024 768" enable-background="new 0 0 1024 768" xml:space="preserve">
<g>
	<g>
		<path fill="none" d="M-94.1,788.375"/>
	</g>
	<g>
		<g>
			<g>
				<path d="M0.119,568.429c-0.266,0-0.501-0.035-0.71-0.109l0.501-1.414c0.68,0.237,3.506-0.936,5.567-1.794l0.349,0.667
					l0.289,0.692C3.222,567.676,1.345,568.429,0.119,568.429z"/>
			</g>
			<g>
				<path d="M53.397,582.439c-5.075-1.373-8.916-4.226-11.417-8.479c-0.128-0.218-0.258-0.431-0.39-0.64l1.269-0.801
					c0.141,0.223,0.278,0.449,0.415,0.681c2.294,3.903,5.833,6.524,10.515,7.792L53.397,582.439z M39.611,570.72
					c-2.815-3.044-6.747-4.826-12.749-5.778l0.235-1.482c6.357,1.009,10.556,2.935,13.615,6.243L39.611,570.72z M9.256,565.203
					l-0.528-1.404c2.293-0.862,3.928-1.265,5.146-1.265c3.845,0.051,7.025,0.21,9.796,0.488l-0.149,1.492
					c-2.728-0.273-5.865-0.431-9.592-0.48C12.519,564.034,10.589,564.701,9.256,565.203z"/>
			</g>
			<g>
				<path d="M57.484,584.687l-0.597-1.377c0.117-0.05,0.241-0.101,0.374-0.151c-0.12-0.013-0.24-0.026-0.361-0.042l0.181-1.488
					c3.537,0.428,6.242-0.01,6.27-0.015l0.274,1.475C60.301,583.772,58.522,584.235,57.484,584.687z"/>
			</g>
			<g>
				<path d="M10.96,654.573c-2.361,0-2.361-2.406-2.361-3.563l0.001-0.342c0-0.212,0-0.711-0.052-0.974
					c-0.191,0.064-0.607,0.264-1.405,0.884l-0.92-1.186c1.11-0.861,1.846-1.229,2.459-1.229c1.418,0,1.418,1.629,1.418,2.504
					l-0.001,0.342c0,1.776,0.254,2.063,0.861,2.063c0.563,0,1.708-0.282,3.966-1.628l0.881,1.222l-0.137,0.081
					C13.617,653.972,12.068,654.573,10.96,654.573z M18.411,650.919l-0.905-1.195c5.051-3.826,5.229-7.372,5.401-10.801l1.498,0.074
					C24.224,642.594,24.02,646.671,18.411,650.919z M24.621,635.996l-1.488-0.186c0.307-2.451,1.031-4.373,2.348-6.232
					c1.267-1.787,2.796-3.267,5.113-4.945l0.88,1.215c-2.176,1.577-3.603,2.952-4.77,4.598
					C25.539,632.092,24.896,633.804,24.621,635.996z M33.975,624.127l-0.833-1.248l0.376-0.25c2.948-1.966,6.289-4.193,9.867-7.898
					l1.079,1.043c-3.69,3.82-7.103,6.096-10.114,8.104L33.975,624.127z M46.553,613.47l-1.142-0.973
					c2.287-2.685,4.409-5.726,6.488-9.297c0.309-0.53,0.595-1.045,0.861-1.544l1.323,0.707c-0.275,0.515-0.57,1.045-0.889,1.592
					C51.071,607.604,48.898,610.717,46.553,613.47z M55.45,599.551l-1.376-0.598c1.237-2.847,1.839-5.325,1.839-7.579
					c0-1.697-0.344-2.928-0.621-3.917c-0.099-0.354-0.187-0.671-0.249-0.96l1.468-0.311c0.055,0.261,0.136,0.547,0.225,0.866
					c0.286,1.021,0.677,2.419,0.677,4.321C57.413,593.838,56.771,596.513,55.45,599.551z"/>
			</g>
			<g>
				<path d="M0.2,657.222l-1.082-1.039c1.807-1.881,3.363-3.437,4.625-4.623l1.027,1.092C3.527,653.822,1.989,655.359,0.2,657.222z"
					/>
			</g>
		</g>
	</g>
	<g>
		<g>
			<g>
				<g>
					<path d="M400.877,415.29c-0.954,0-1.835-0.198-2.619-0.588l0.668-1.344c0.575,0.286,1.231,0.432,1.951,0.432
						c2.503,0,4.954-1.699,4.979-1.717l0.861,1.229C406.601,413.383,403.849,415.29,400.877,415.29z"/>
				</g>
			</g>
			<g>
				<g>
					<g>
						<path d="M390.506,415.476l-0.224-1.482c2.066-0.312,4.208-0.687,6.369-1.114l0.291,1.471
							C394.76,414.782,392.594,415.161,390.506,415.476z"/>
					</g>
					<g>
						<path d="M375.275,416.721c-0.894,0-1.775-0.016-2.642-0.046l0.053-1.5c4.352,0.154,9.135-0.09,14.31-0.729l0.184,1.488
							C382.954,416.456,378.949,416.721,375.275,416.721z M369.262,416.463c-5.725-0.519-10.486-1.819-14.151-3.869l0.732-1.309
							c3.48,1.945,8.04,3.185,13.553,3.684L369.262,416.463z"/>
					</g>
					<g>
						<path d="M352.228,410.651c-1.705-1.386-3.081-3.019-4.093-4.859c-1.885-0.197-3.923-0.803-6.065-1.804l0.635-1.359
							c2.135,0.998,4.139,1.571,5.956,1.704l0.419,0.031l0.193,0.373c0.933,1.806,2.245,3.404,3.902,4.75L352.228,410.651z"/>
					</g>
					<g>
						<path d="M338.947,402.302c-3.669-2.236-7.614-5.487-11.724-9.663l1.069-1.053c4.023,4.089,7.871,7.263,11.435,9.435
							L338.947,402.302z M324.813,390.103c-4.647-5.06-7.924-9.578-9.464-11.82l1.236-0.849c1.517,2.21,4.747,6.663,9.332,11.653
							L324.813,390.103z"/>
					</g>
					<g>
						<path d="M313.509,375.193c-1.129-2.566-1.009-4.896,0.356-6.925l1.244,0.837c-1.059,1.574-1.136,3.419-0.228,5.483
							L313.509,375.193z"/>
					</g>
				</g>
			</g>
			<g>
				<g>
					<path d="M316.002,368.048l-1.045-1.076c1.749-1.697,4.06-2.603,5.076-2.942c0.034-0.867-0.038-2.859-1.167-4.944l1.318-0.715
						c1.75,3.23,1.316,6.214,1.296,6.34l-0.074,0.483l-0.473,0.127C320.904,365.329,317.975,366.135,316.002,368.048z"/>
				</g>
			</g>
			<g>
				<g>
					<g>
						<path d="M6.478,352.021l-1.134-0.034c-1.849-0.058-3.595-0.114-5.314-0.044l-0.06-1.499c1.77-0.068,3.626-0.013,5.42,0.043
							l1.13,0.035L6.478,352.021z"/>
					</g>
					<g>
						<path d="M9.443,352.063l-0.01-1.5c3.391-0.021,7.312-0.335,10.688-2.501c0.331-0.212,0.65-0.425,0.957-0.64l0.859,1.229
							c-0.323,0.226-0.658,0.45-1.006,0.673C17.233,351.697,13.048,352.04,9.443,352.063z M24.31,346.8l-0.989-1.128
							c3.537-3.1,5.172-6.451,6.801-10.193l1.375,0.599C29.795,339.989,28.079,343.495,24.31,346.8z M32.666,333.394l-1.369-0.612
							c1.509-3.377,3.404-7.026,7.016-10.818l1.086,1.034C35.943,326.626,34.121,330.138,32.666,333.394z M41.459,320.998
							l-1.003-1.115c2.856-2.569,6.305-4.972,10.543-7.345l0.732,1.309C47.592,316.165,44.232,318.504,41.459,320.998z
							 M54.295,312.467l-0.689-1.332c2.865-1.483,6.088-2.968,9.581-4.413c0.698-0.289,1.398-0.568,2.1-0.836l0.537,1.4
							c-0.69,0.265-1.377,0.539-2.063,0.822C60.307,309.537,57.122,311.003,54.295,312.467z M68.562,306.292l-0.488-1.418
							c3.921-1.35,8.091-2.468,12.394-3.324l0.293,1.471C76.523,303.864,72.419,304.964,68.562,306.292z M157.119,304.069
							c-2.991,0-6.537-0.178-11.16-0.561l0.124-1.495c5.43,0.449,9.285,0.618,12.644,0.537l0.036,1.5
							C158.226,304.063,157.677,304.069,157.119,304.069z M143.024,303.253c-1.984-0.18-4.032-0.378-6.137-0.583
							c-2.128-0.206-4.313-0.417-6.548-0.621l0.137-1.494c2.237,0.205,4.425,0.416,6.556,0.623c2.102,0.203,4.147,0.401,6.128,0.581
							L143.024,303.253z M83.63,302.491l-0.252-1.479c4.025-0.685,8.308-1.177,12.729-1.461l0.096,1.497
							C91.834,301.33,87.604,301.815,83.63,302.491z M127.415,301.791c-4.79-0.411-8.819-0.68-12.681-0.849l0.065-1.499
							c3.883,0.169,7.932,0.441,12.743,0.854L127.415,301.791z M99.125,300.892l-0.065-1.499c4.025-0.175,8.288-0.195,12.792-0.059
							l-0.045,1.499C107.338,300.698,103.113,300.718,99.125,300.892z"/>
					</g>
					<g>
						<path d="M161.919,303.883l-0.129-1.494c2.466-0.213,4.485-0.609,6.174-1.209l0.503,1.413
							C166.657,303.236,164.515,303.659,161.919,303.883z"/>
					</g>
				</g>
			</g>
			<g>
				<g>
					<g>
						<path d="M317,356.646c-0.98-0.95-2.202-1.767-3.63-2.427c-0.574-0.266-1.14-0.536-1.696-0.806l0.657-1.349
							c0.547,0.267,1.103,0.532,1.668,0.793c1.582,0.731,2.942,1.644,4.044,2.711L317,356.646z"/>
					</g>
					<g>
						<path d="M308.999,352.053c-4.363-2.303-8.063-4.68-11.106-6.702l0.83-1.249c3.012,2.001,6.672,4.353,10.976,6.625
							L308.999,352.053z M247.492,344.606c-1.021,0-2.016-0.095-2.956-0.284c-2.14-0.429-3.904-0.821-5.553-1.233l0.364-1.455
							c1.625,0.407,3.367,0.794,5.483,1.218c2.046,0.41,4.285,0.327,6.879-0.251l0.326,1.464
							C250.403,344.428,248.917,344.605,247.492,344.606z M295.416,343.691l-0.208-0.14c-3.951-2.661-7.362-4.959-10.715-6.438
							l0.605-1.372c3.475,1.532,6.938,3.865,10.948,6.566l0.208,0.14L295.416,343.691z M254.974,343.256l-0.461-1.428
							c2.808-0.906,5.697-2.192,8.49-3.437c1.131-0.504,2.256-1.005,3.369-1.479l0.588,1.38c-1.105,0.471-2.223,0.968-3.346,1.469
							C260.784,341.022,257.857,342.326,254.974,343.256z M236.084,342.305c-4.479-1.307-8.416-2.956-12.034-5.041l0.749-1.3
							c3.513,2.024,7.342,3.627,11.705,4.901L236.084,342.305z M269.692,337.189l-0.529-1.403c4.066-1.535,7.117-2.086,9.773-1.792
							c1.09,0.122,2.166,0.343,3.287,0.677l-0.429,1.438c-1.034-0.308-2.023-0.512-3.024-0.623
							C276.355,335.215,273.523,335.743,269.692,337.189z M221.479,335.677c-3.52-2.324-6.766-5.093-9.923-8.466l1.095-1.025
							c3.077,3.286,6.235,5.981,9.655,8.239L221.479,335.677z M209.516,325.147c-2.343-2.074-5.592-4-10.665-6.927l0.75-1.299
							c5.154,2.974,8.46,4.936,10.909,7.103L209.516,325.147z M196.273,316.734c-3.208-1.852-6.776-3.93-11.117-6.569l0.779-1.281
							c4.328,2.631,7.886,4.704,11.087,6.551L196.273,316.734z M182.615,308.608c-1.958-1.207-4.049-2.515-6.286-3.938
							c-1.51-0.961-3.059-1.951-4.638-2.961l0.809-1.264c1.579,1.011,3.126,1.999,4.635,2.959c2.23,1.42,4.316,2.724,6.268,3.928
							L182.615,308.608z M169.181,300.099c-3.515-2.257-7.16-4.607-10.862-6.997l0.813-1.261c3.701,2.389,7.345,4.739,10.859,6.995
							L169.181,300.099z M155.814,291.484l-10.858-7.008l0.813-1.261l10.859,7.009L155.814,291.484z M142.45,282.864
							c-3.696-2.378-7.345-4.719-10.875-6.968l0.806-1.265c3.532,2.25,7.183,4.591,10.88,6.971L142.45,282.864z M129.061,274.297
							c-4.121-2.615-7.697-4.86-10.936-6.863l0.789-1.275c3.243,2.006,6.825,4.254,10.95,6.872L129.061,274.297z M11.168,267.49
							l-0.318-1.466c3.359-0.73,7.645-1.537,12.737-2.399l0.25,1.479C18.768,265.962,14.505,266.765,11.168,267.49z
							 M115.588,265.874c-4.56-2.792-8.191-4.936-11.103-6.552l0.729-1.312c2.93,1.627,6.58,3.781,11.157,6.584L115.588,265.874z
							 M26.775,264.615l-0.242-1.48c3.885-0.636,8.187-1.3,12.785-1.975l0.218,1.484C34.946,263.317,30.653,263.98,26.775,264.615z
							 M42.485,262.215l-0.214-1.484c4.087-0.588,8.397-1.183,12.812-1.769l0.197,1.487
							C50.872,261.034,46.566,261.628,42.485,262.215z M58.235,260.06l-0.194-1.487c4.427-0.578,8.757-1.12,12.832-1.611l0.18,1.489
							C66.981,258.94,62.657,259.482,58.235,260.06z M74.012,258.098l-0.176-1.489c4.742-0.559,9.189-1.051,12.862-1.423
							l0.151,1.492C83.185,257.049,78.746,257.541,74.012,258.098z M101.877,257.914c-3.409-1.773-4.533-2.038-4.899-2.038
							c-1.143,0-3.619,0.176-7.162,0.51l-0.141-1.493c3.64-0.343,6.097-0.517,7.303-0.517c0.628,0,1.831,0.251,5.591,2.207
							L101.877,257.914z"/>
					</g>
					<g>
						<path d="M2.673,270.066l-0.984-1.132c0.495-0.43,1.698-1.135,6.424-2.285l0.354,1.457
							C4.189,269.147,3.001,269.781,2.673,270.066z"/>
					</g>
				</g>
			</g>
		</g>
	</g>
</g>
</svg>
