<?xml version="1.0" encoding="utf-8"?>
<!-- Generator: Adobe Illustrator 16.0.3, SVG Export Plug-In . SVG Version: 6.00 Build 0)  -->
<!DOCTYPE svg PUBLIC "-//W3C//DTD SVG 1.1//EN" "http://www.w3.org/Graphics/SVG/1.1/DTD/svg11.dtd">
<svg version="1.1" id="Layer_1" xmlns="http://www.w3.org/2000/svg" xmlns:xlink="http://www.w3.org/1999/xlink" x="0px" y="0px"
	 width="1024px" height="768px" viewBox="0 0 1024 768" enable-background="new 0 0 1024 768" xml:space="preserve">
<g>
	<g>
		<path fill="#9E1616" d="M0.001,294.917l0.958-0.113c61.879-7.275,78.606-2.758,86.646-0.588c1.783,0.481,3.07,0.829,4.228,0.875
			l3.703,0.145c12.755,0.497,24.802,0.965,31.504,2.5c13.207,3.025,49.472,14.327,60.605,18.644
			c11.004,4.265,69.137,34.212,88.013,44.793c6.179,3.463,89.317,25.596,95.714,27.133c12.708,3.059,23.997,4.246,33.958,5.294
			c3.635,0.383,7.069,0.743,10.463,1.177c5.986,0.763,35.763,10.036,47.139,20.595c0.567,0.526,1.179,1.077,1.823,1.656
			c7.75,6.972,20.719,18.639,18.377,43.456c-0.556,5.885-2.041,11.863-3.477,17.646c-1.948,7.84-3.961,15.946-3.879,24.353
			c0.128,13.127-4.305,22.251-8.999,31.91c-1.036,2.131-2.106,4.334-3.157,6.634c-3.361,7.351-3.339,14.22-3.318,20.862
			c0.014,4.278,0.028,8.703-0.872,13.111c-0.713,3.494-1.862,7.898-3.079,12.562c-2.404,9.216-5.396,20.685-4.941,25.704
			c0.757,8.374,0.01,13.405-0.022,13.615l-5.931-0.908l2.965,0.454l-2.966-0.448c0.007-0.045,0.663-4.598-0.021-12.172
			c-0.548-6.063,2.329-17.093,5.111-27.76c1.195-4.583,2.325-8.911,3.005-12.246c0.776-3.805,0.764-7.733,0.75-11.894
			c-0.022-6.95-0.047-14.827,3.861-23.375c1.081-2.364,2.167-4.6,3.218-6.762c4.566-9.397,8.51-17.514,8.396-29.229
			c-0.089-9.17,2.019-17.654,4.057-25.858c1.447-5.823,2.813-11.324,3.326-16.763c2.059-21.811-9.059-31.813-16.416-38.431
			c-0.669-0.602-1.304-1.173-1.892-1.719c-10.298-9.559-38.411-18.354-43.816-19.042c-3.329-0.424-6.731-0.782-10.333-1.161
			c-10.145-1.066-21.643-2.276-34.733-5.427c-0.835-0.201-89.584-23.44-97.244-27.734c-18.275-10.244-76.684-40.337-87.249-44.433
			c-10.719-4.156-47.046-15.474-59.776-18.39c-6.156-1.409-17.931-1.867-30.398-2.353l-3.708-0.146
			c-1.832-0.073-3.475-0.516-5.554-1.078c-7.677-2.073-23.651-6.385-84.382,0.755L0,300.96"/>
	</g>
	<path fill="none" stroke="#9E1616" stroke-width="6" stroke-miterlimit="10" d="M60.215,624.979c0,0-10.859-13.702-5.705-23.488
		c7.699-14.619,22.805-39.31,30.85-52.896c8.046-13.589,19.574-41.805,29.214-57.035c9.638-15.233,26.509-54.011,35.312-67.261
		c8.801-13.251,35.299-47.626,47.356-53.178c12.057-5.551,33.163-7.792,56.802-6.858c23.637,0.934,20.147-0.475,20.147-0.475"/>
	<g>
		<path fill="#9E1616" d="M0,346.956v-6.009c15.289-5.669,28.626-8.405,39.471-8.405c0.175,0.001,0.349,0,0.525,0
			c19.376,0,52.234-3.333,66.65-6.773c14.211-3.393,49.408-4.737,64.438-5.312l1.929-0.074c14.279-0.545,33.749,5.184,34.571,5.428
			l-1.709,5.751c-0.192-0.057-19.353-5.705-32.629-5.184l-1.932,0.074c-14.854,0.568-49.638,1.897-63.274,5.152
			c-14.864,3.548-48.735,6.978-68.452,6.937c-0.04,0-0.08,0-0.12,0C29.32,338.542,14.638,341.528,0,346.956z"/>
	</g>
</g>
</svg>
