<?xml version="1.0" encoding="utf-8"?>
<!-- Generator: Adobe Illustrator 16.0.3, SVG Export Plug-In . SVG Version: 6.00 Build 0)  -->
<!DOCTYPE svg PUBLIC "-//W3C//DTD SVG 1.1//EN" "http://www.w3.org/Graphics/SVG/1.1/DTD/svg11.dtd">
<svg version="1.1" id="Layer_1" xmlns="http://www.w3.org/2000/svg" xmlns:xlink="http://www.w3.org/1999/xlink" x="0px" y="0px"
	 width="1024px" height="768px" viewBox="0 0 1024 768" enable-background="new 0 0 1024 768" xml:space="preserve">
<g>
	<g>
		<path d="M0,552.098l1.985-0.246c0.286,2.312-0.581,5.063-1.42,7.723c-0.194,0.615-0.387,1.228-0.562,1.824"/>
	</g>
	<g>
		<path d="M48.094,581.674c-3.251-1.696-5.843-4.157-7.705-7.314c-1.06-1.797-2.244-3.218-3.619-4.341l2.53-3.098
			c1.747,1.427,3.23,3.195,4.534,5.407c1.477,2.503,3.532,4.454,6.11,5.799L48.094,581.674z M0,565.625
			c0.843-0.067,2.691-1.205,4.382-1.908c2.656-1.103,5.402-2.244,7.674-2.573l0.574,3.959c-1.775,0.257-4.399,1.347-6.714,2.309
			c-2.683,1.114-4.506,1.848-5.916,2.002 M32.683,567.65c-3.476-1.404-8.268-2.193-15.083-2.485l0.171-3.996
			c7.285,0.312,12.5,1.192,16.411,2.772L32.683,567.65z"/>
	</g>
	<g>
		<path d="M57.043,585.849c0.088-0.079,0.178-0.283,0.177-0.405l-3.998,0.143c-0.026-0.752,0.131-1.378,0.452-1.908
			c-0.012-0.003-0.024-0.006-0.036-0.008l0.873-3.904c4.361,0.976,8.148,0.384,8.188,0.379l0.725,3.933
			C62.01,584.367,57.71,585.251,57.043,585.849z"/>
	</g>
	<g>
		<path d="M10.347,655.579c-1.322,0-3.55-0.574-3.612-4.422l3.999-0.064c0.003,0.17,0.009,0.308,0.018,0.418
			c0.477-0.121,1.379-0.459,2.938-1.385c2.84-1.688,4.764-3.387,5.882-5.193l3.401,2.104c-1.465,2.368-3.833,4.504-7.24,6.529
			C13.418,654.939,11.708,655.579,10.347,655.579z M24.94,640.836l-3.98-0.395c0.069-0.698,0.103-1.396,0.138-2.099
			c0.145-2.918,0.309-6.227,2.799-9.731c1.133-1.595,2.506-2.998,4.322-4.415l2.461,3.152c-1.5,1.172-2.62,2.31-3.522,3.579
			c-1.814,2.553-1.931,4.898-2.065,7.613C25.054,639.309,25.016,640.072,24.94,640.836z M35.208,624.206l-2.221-3.326
			c3.941-2.631,7.835-5.441,12.142-10.859l3.131,2.488C43.598,618.376,39.256,621.505,35.208,624.206z M51.676,607.768l-3.346-2.193
			c0.673-1.026,1.348-2.118,2.005-3.245c2.558-4.381,3.854-8.146,3.854-11.194l4-0.052v0.052c0,3.818-1.439,8.14-4.4,13.211
			C53.098,605.531,52.386,606.683,51.676,607.768z"/>
	</g>
	<g>
		<path d="M0,652.595c1.734-1.732,3.121-3.028,4.204-3.929l2.558,3.076c-1.434,1.192-3.95,3.718-6.762,6.633"/>
	</g>
</g>
<g>
	<g>
		<g>
			<g>
				<path d="M316.039,371.398l-3.742-1.413c0.213-0.563,0.498-1.112,0.848-1.631l0.132-0.174l1.132-1.322
					c1.52-1.47,3.415-2.399,4.698-2.91c-0.061-0.874-0.289-2.155-1.008-3.478l3.514-1.911c1.923,3.536,1.494,6.771,1.438,7.129
					l-0.2,1.29l-1.262,0.336c-0.021,0.005-2.598,0.722-4.333,2.354l-0.851,1.005C316.255,370.91,316.131,371.154,316.039,371.398z"
					/>
			</g>
			<g>
				<path d="M335.391,401.936c-3.497-2.564-7.167-5.91-10.908-9.943l2.933-2.721c3.569,3.849,7.048,7.024,10.34,9.439
					L335.391,401.936z M321.24,388.337c-2.767-3.254-5.381-6.695-7.361-9.688c-0.564-0.854-1.019-1.704-1.351-2.529l3.71-1.494
					c0.232,0.576,0.561,1.187,0.977,1.816c1.895,2.864,4.406,6.168,7.073,9.305L321.24,388.337z"/>
			</g>
			<g>
				<path d="M354.129,413.993c-2.717-1.663-4.848-3.765-6.347-6.257c-2.536-0.372-5.285-1.396-8.188-3.052l1.981-3.475
					c2.806,1.601,5.362,2.495,7.597,2.658l1.115,0.082l0.515,0.994c1.167,2.256,2.99,4.152,5.415,5.637L354.129,413.993z"/>
			</g>
			<g>
				<path d="M373.99,418.73c-5.862-0.138-10.935-0.97-15.078-2.47l1.362-3.762c3.735,1.354,8.382,2.104,13.811,2.233L373.99,418.73z
					 M379.012,418.688l-0.153-3.996c4.412-0.17,9.237-0.696,14.34-1.565l0.672,3.943
					C388.596,417.968,383.597,418.513,379.012,418.688z"/>
			</g>
			<g>
				<path d="M401.432,417.314c-0.967,0-1.962-0.17-2.928-0.604l-0.6-0.14l0.906-3.896l1.033,0.24l0.208,0.104
					c1.903,0.945,4.814-0.58,5.684-1.188l2.293,3.277C407.863,415.224,404.823,417.314,401.432,417.314z"/>
			</g>
		</g>
		<g>
			<g>
				<path d="M8.465,354.102c-1.272,0-2.546-0.04-3.783-0.078c-1.616-0.051-3.143-0.098-4.637-0.063l-0.093-3.999
					c1.606-0.037,3.257,0.015,4.854,0.064c1.376,0.043,2.798,0.091,4.171,0.074l0.039,4C8.833,354.101,8.649,354.102,8.465,354.102z
					"/>
			</g>
			<g>
				<path d="M15.259,353.488l-0.852-3.908c1.703-0.371,3.162-0.955,4.458-1.784c3.397-2.173,5.73-4.604,7.564-7.882l3.491,1.953
					c-2.173,3.884-4.918,6.751-8.9,9.298C19.318,352.254,17.434,353.014,15.259,353.488z M32.514,336.391l-3.67-1.592
					c1.952-4.5,4.164-9.602,10.288-15.083l2.668,2.98C36.329,327.593,34.389,332.066,32.514,336.391z M46.211,319.231l-2.286-3.282
					c4.256-2.965,9.422-5.751,15.795-8.517l1.593,3.669C55.187,313.761,50.247,316.42,46.211,319.231z M66.648,308.936l-1.387-3.752
					c5.395-1.994,11.235-3.536,17.359-4.584l0.675,3.942C77.414,305.549,71.813,307.027,66.648,308.936z M153.104,306.028
					c-4.97-0.202-10.619-0.747-16.6-1.323l-1.064-0.103l0.383-3.981l1.065,0.103c5.924,0.571,11.52,1.111,16.378,1.308
					L153.104,306.028z M129.606,304.054c-4.688-0.424-10.911-0.938-17.458-1.156l0.133-3.998c6.649,0.221,12.944,0.742,17.686,1.17
					L129.606,304.054z M89.004,303.718l-0.472-3.972c5.419-0.645,11.056-0.958,17.232-0.958l0.585,0.001l-0.01,4l-0.575-0.001
					C99.748,302.789,94.265,303.093,89.004,303.718z"/>
			</g>
			<g>
				<path d="M159.298,306.073l-0.139-3.998c3.461-0.12,6.163-0.539,8.259-1.282l1.335,3.771
					C166.266,305.445,163.173,305.938,159.298,306.073z"/>
			</g>
		</g>
		<g>
			<g>
				<path d="M316.461,358.336c-0.89-0.856-2-1.594-3.3-2.194c-1.328-0.613-2.671-1.272-3.993-1.959l1.845-3.549
					c1.266,0.658,2.553,1.289,3.824,1.876c1.706,0.787,3.185,1.777,4.397,2.943L316.461,358.336z"/>
			</g>
			<g>
				<path d="M303.949,351.275c-3.416-2.027-6.48-4.085-9.185-5.901c-1.97-1.323-3.832-2.573-5.599-3.66l2.097-3.406
					c1.834,1.129,3.728,2.4,5.731,3.746c2.791,1.874,5.677,3.812,8.997,5.782L303.949,351.275z M247.603,346.644
					c-0.653,0-1.299-0.036-1.92-0.106l0.45-3.975c0.472,0.053,0.966,0.081,1.47,0.081c4.308,0,9.033-1.938,14.317-4.28l1.62,3.657
					C257.833,344.55,252.694,346.643,247.603,346.644z M239.708,345.318c-6.751-1.611-11.956-3.632-16.876-6.553l2.042-3.439
					c4.559,2.707,9.42,4.588,15.763,6.102L239.708,345.318z M268.862,339.716l-1.505-3.706c2.926-1.188,6.751-2.552,10.383-2.552
					c0.525,0,1.044,0.028,1.542,0.083c2.13,0.237,4.285,0.846,6.587,1.863l-1.615,3.659c-1.924-0.85-3.695-1.355-5.414-1.546
					c-0.352-0.039-0.722-0.059-1.1-0.059C274.8,337.458,271.451,338.665,268.862,339.716z M217.79,335.353
					c-2.677-2.05-5.287-4.458-7.755-7.157c-1.274-1.393-2.868-2.658-5.329-4.231l2.153-3.371c2.772,1.771,4.605,3.238,6.128,4.903
					c2.309,2.525,4.743,4.773,7.234,6.679L217.79,335.353z M199.762,321l-2.642-1.521c-3.323-1.909-7.458-4.285-12.553-7.371
					l2.072-3.421c5.055,3.061,9.168,5.424,12.473,7.323l2.653,1.528L199.762,321z M179.557,309.033
					c-1.28-0.796-2.613-1.633-4.002-2.515c-3.452-2.19-7.102-4.524-10.865-6.939l2.16-3.366c3.757,2.411,7.401,4.741,10.848,6.928
					c1.378,0.875,2.702,1.706,3.972,2.496L179.557,309.033z M159.75,296.406l-14.796-9.521l2.162-3.365l14.798,9.521L159.75,296.406
					z M140.02,283.718c-5.787-3.708-10.639-6.795-14.834-9.437l2.131-3.385c4.205,2.647,9.065,5.739,14.861,9.453L140.02,283.718z
					 M120.221,271.175c-6.287-3.913-11.197-6.868-15.012-9.035l1.976-3.478c3.861,2.194,8.817,5.176,15.149,9.116L120.221,271.175z
					 M14.458,268.759l-0.769-3.926c4.654-0.912,10.519-1.917,17.43-2.989l0.613,3.953C24.873,266.861,19.062,267.857,14.458,268.759
					z M37.521,264.921l-0.586-3.957c5.47-0.809,11.345-1.63,17.465-2.44l0.524,3.966C48.826,263.296,42.971,264.114,37.521,264.921z
					 M60.736,261.733l-0.508-3.968c6.045-0.773,12.099-1.505,17.507-2.117l0.449,3.975
					C72.796,260.233,66.762,260.962,60.736,261.733z M100.137,259.396c-2.723-1.364-3.47-1.468-3.547-1.475
					c-1.592,0.001-6.192,0.389-12.585,1.064l-0.42-3.978c4.684-0.495,10.75-1.085,13.043-1.085c0.786,0,1.973,0.23,5.301,1.897
					L100.137,259.396z"/>
			</g>
			<g>
				<path d="M0,268.75c0.806-0.612,2.919-1.527,8.059-2.723l0.907,3.896c-5.088,1.185-6.036,1.826-6.127,1.896
					c-0.544,0.474-1.329,0.744-2.61,0.891"/>
			</g>
		</g>
	</g>
</g>
</svg>
