<?xml version="1.0" encoding="utf-8"?>
<!-- Generator: Adobe Illustrator 16.0.0, SVG Export Plug-In . SVG Version: 6.00 Build 0)  -->
<!DOCTYPE svg PUBLIC "-//W3C//DTD SVG 1.1//EN" "http://www.w3.org/Graphics/SVG/1.1/DTD/svg11.dtd">
<svg version="1.1" xmlns="http://www.w3.org/2000/svg" xmlns:xlink="http://www.w3.org/1999/xlink" x="0px" y="0px" width="400px"
	 height="100px" viewBox="0 0 400 100" enable-background="new 0 0 400 100" xml:space="preserve">
<g id="Layer_1">
	<path fill="#E31837" d="M165.234,25.026v1.117c10.45,1.638,9.349,4.094,3.438,19.358l-8.113,21.071l-11-28.739
		c-1.787-4.691-4.951-10.647,4.744-11.69v-1.117l-59.421-0.002v1.097c7.766,1.46,9.553,3.505,9.622,10.444l0.343,26.661
		L70.899,25.023h-24.41v1.097c9.62,0.949,10.308,5.186,10.308,14.461v7.67c0,8.911,1.443,23.958-13.4,23.958
		c-18.829,0-16.63-18.846-16.63-20.233V37.002c0-8.034,0.138-9.494,9.14-10.882v-1.097H12.198v1.097
		c8.246,1.168,8.314,3.359,8.521,10.882v16.362c0,5.843-2.199,22.204,19.103,22.204c15.256,0,19.036-9.567,19.242-18.991
		l0.413-15.996c0.273-9.625-1.188-14.458,5.018-14.458c6.208,0,4.892,4.896,4.892,12.194v10.956c0,16.581,0.344,23.302-8.933,24.324
		v1.096H81v-1.096c-9.965-2.118-9.553-5.845-9.553-23.958V36.2c11.613,13.292,23.846,24.727,34.841,38.532l0.893-0.219
		c-0.343-15.925,0.275-32.121,0.275-40.213c0-5.008,0.822-8.167,5.183-8.167c4.747,0,4.407,3.374,4.612,10.869v25.713
		c-0.207,7.521-0.275,9.713-8.522,10.883v1.096h33.886l3.916-13.588l-0.894-0.437c-5.29,9.351-7.008,12.783-17.453,11.978
		l-3.855-0.657c-1.031-3.506-1.031-7.378-1.031-11.029V37.002c0-7.522,1.151-10.904,7.958-10.904c6.806,0,8.951,5.555,11.015,10.99
		l15.537,37.645h1.356l12.738-31.316c4.262-10.795,6.256-16.677,12.718-17.272v-1.117H165.234z"/>
	<g>
		<path fill="#414042" d="M217.582,31.416c0,5.89-4.274,9.643-10.026,9.643c-5.78,0-10.026-3.753-10.026-9.67
			c0-5.835,4.273-9.615,9.999-9.615C214.541,21.773,217.582,26.54,217.582,31.416z M200.707,30.73c0,4.246,2.246,9.67,7.178,9.67
			c4.52,0,6.52-4.602,6.52-8.52c-0.083-4.848-2.904-9.45-7.096-9.45C202.598,22.431,200.707,27.033,200.707,30.73z"/>
		<path fill="#414042" d="M237.554,36.429l-0.137-9.999c-0.027-2.603-0.74-3.369-3.836-3.917v-0.411h7.479v0.411
			c-1.89,0.246-2.245,1.287-2.466,3.068c-0.383,3.013-0.245,9.615-0.108,15.587l-0.356,0.082
			c-4.383-5.177-9.259-9.971-13.889-14.957v5.041c0,6.793-0.165,8.19,3.808,8.985v0.411h-8.19v-0.411
			c3.698-0.384,3.561-2.904,3.561-9.123v-4.109c0-2.739-0.438-3.807-3.917-4.574v-0.411h4.52L237.554,36.429z"/>
		<path fill="#414042" d="M242.377,40.319c3.287-0.439,3.314-1.26,3.396-4.082v-9.643c-0.082-2.822-0.109-3.644-3.396-4.082v-0.411
			h9.204v0.411c-3.287,0.438-3.396,1.26-3.396,4.082v8.985c0,1.37,0,2.821,0.41,4.136l3.342,0.247
			c4.164,0.301,4.85-0.986,6.959-4.493l0.356,0.164l-1.562,5.096h-15.313V40.319z"/>
		<path fill="#414042" d="M265.745,36.237c0.083,2.822,0.11,3.643,3.396,4.082v0.411h-9.204v-0.411
			c3.288-0.439,3.315-1.26,3.397-4.082v-9.643c-0.082-2.822-0.109-3.644-3.397-4.082v-0.411h9.204v0.411
			c-3.286,0.438-3.313,1.26-3.396,4.082V36.237z"/>
		<path fill="#414042" d="M288.51,36.429l-0.136-9.999c-0.027-2.603-0.74-3.369-3.836-3.917v-0.411h7.479v0.411
			c-1.89,0.246-2.245,1.287-2.466,3.068c-0.383,3.013-0.245,9.615-0.109,15.587l-0.355,0.082
			c-4.383-5.177-9.259-9.971-13.889-14.957v5.041c0,6.793-0.164,8.19,3.807,8.985v0.411h-8.189v-0.411
			c3.698-0.384,3.561-2.904,3.561-9.123v-4.109c0-2.739-0.438-3.807-3.917-4.574v-0.411h4.52L288.51,36.429z"/>
		<path fill="#414042" d="M293.334,40.319c3.287-0.439,3.314-1.26,3.396-4.082v-9.643c-0.082-2.822-0.109-3.644-3.396-4.082v-0.411
			h14.71l-0.328,4.219h-0.411c-0.192-3.534-2.74-3.562-5.507-3.562h-2.656v7.808h2.849c2.054,0,3.615-0.165,3.917-2.521h0.411v6.109
			h-0.411c-0.356-2.411-1.863-2.438-3.917-2.438h-2.849v4.493c0,1.616-0.384,3.863,4.108,3.863c3.452,0,5.15-1.315,5.835-4.767
			h0.411c-0.027,2.082-0.384,3.78-0.932,5.424h-15.23V40.319z"/>
		<path fill="#414042" d="M196.899,63.899c3.287-0.439,3.314-1.26,3.397-4.082v-9.643c-0.083-2.822-0.11-3.644-3.397-4.082v-0.412
			h14.71l-0.328,4.219h-0.411c-0.192-3.533-2.739-3.561-5.506-3.561h-2.657v7.808h2.849c2.055,0,3.616-0.165,3.918-2.521h0.41v6.109
			h-0.41c-0.356-2.411-1.863-2.438-3.918-2.438h-2.849v4.493c0,1.616-0.384,3.862,4.108,3.862c3.451,0,5.151-1.315,5.835-4.767
			h0.411c-0.027,2.082-0.384,3.781-0.932,5.424h-15.23V63.899z"/>
		<path fill="#414042" d="M215.146,45.847l6.629-0.219c12.053-0.383,13.313,6.574,13.313,9.423c0,3.917-2.521,9.396-11.943,9.314
			l-8.164-0.055v-0.41c3.287-0.439,3.314-1.26,3.396-4.082v-9.506c-0.082-2.821-0.109-3.644-3.231-4.082V45.847z M220.788,60.091
			c0,1.835,0.329,3.588,3.726,3.588c3.15,0,7.396-1.972,7.396-8.218c0-6.574-5.177-9.314-11.121-9.287V60.091z"/>
		<path fill="#414042" d="M259.032,45.682v0.412c-2.493,0.274-2.658,1.808-2.768,5.423l-0.164,6
			c-0.082,3.534-1.588,7.123-7.671,7.123c-8.492,0-7.615-6.136-7.615-8.328v-6.136c-0.082-2.822-0.109-3.644-3.396-4.082v-0.412
			h9.451v0.412c-3.589,0.52-3.644,1.068-3.644,4.082v5.616c0,0.521-0.877,7.588,6.629,7.588c5.917,0,5.342-5.643,5.342-8.985v-2.877
			c0-3.479-0.274-5.067-4.108-5.423v-0.412H259.032z"/>
		<path fill="#414042" d="M278.127,51.325h-0.411c-0.521-3.096-2.329-5.314-5.615-5.314c-5.013,0-7.835,4.109-7.835,8.821
			c0,5.396,4.136,9.149,8.108,9.149c3.589,0,5.013-2.629,6.246-5.588l0.383,0.164c-0.328,1.671-0.849,3.314-1.506,4.903
			c-1.753,0.849-3.644,1.178-5.589,1.178c-5.725,0-10.82-3.287-10.82-9.479c0-4.876,3.808-9.807,11.04-9.807
			c2.082,0,4.19,0.411,5.999,1.479V51.325z"/>
		<path fill="#414042" d="M285.251,56.502c-0.466,1.37-1.671,4.219-1.671,5.534c0,1.671,1.89,1.671,3.123,1.863v0.41h-7.507v-0.41
			c2.438-0.658,2.685-1.206,3.534-3.343l3.096-8.081l1.644-4.465c0.246-0.712,0.604-1.37,0.302-1.891
			c0.738-0.301,1.424-0.794,2-1.479l6.026,16.053c0.739,2,1.204,2.794,3.396,3.206v0.41h-8.054v-0.41
			c0.959-0.22,2.109-0.521,2.109-1.753c0-1.151-1.041-3.726-1.754-5.644H285.251z M288.292,48.12l-2.575,7.123h5.424L288.292,48.12z
			"/>
		<path fill="#414042" d="M314.894,44.833h0.219l0.384,5.123l-0.384,0.082c-0.959-3.397-2.466-3.534-5.616-3.534h-1.643V59.16
			c0,3.396,0.164,4.3,3.834,4.739v0.41h-10.08v-0.41c3.671-0.439,3.835-1.343,3.835-4.739V46.504h-1.644
			c-3.15,0-4.657,0.137-5.616,3.534l-0.383-0.082l0.383-5.123h0.22l0.273,0.247c0.686,0.63,0.795,0.603,1.699,0.603h12.546
			c0.904,0,1.014,0.028,1.698-0.603L314.894,44.833z"/>
		<path fill="#414042" d="M322.646,59.817c0.083,2.822,0.11,3.643,3.397,4.082v0.41h-9.205v-0.41
			c3.288-0.439,3.315-1.26,3.397-4.082v-9.643c-0.082-2.822-0.109-3.644-3.397-4.082v-0.412h9.205v0.412
			c-3.287,0.438-3.314,1.26-3.397,4.082V59.817z"/>
		<path fill="#414042" d="M348.453,54.996c0,5.89-4.273,9.643-10.025,9.643c-5.781,0-10.026-3.753-10.026-9.67
			c0-5.834,4.272-9.615,9.999-9.615C345.413,45.354,348.453,50.12,348.453,54.996z M331.578,54.311c0,4.246,2.247,9.67,7.178,9.67
			c4.52,0,6.52-4.602,6.52-8.52c-0.083-4.848-2.903-9.451-7.095-9.451C333.469,46.011,331.578,50.613,331.578,54.311z"/>
		<path fill="#414042" d="M368.425,60.009l-0.138-9.999c-0.027-2.603-0.738-3.37-3.834-3.917v-0.412h7.479v0.412
			c-1.891,0.246-2.247,1.287-2.466,3.068c-0.383,3.013-0.247,9.615-0.109,15.587L369,64.831c-4.383-5.178-9.26-9.971-13.889-14.957
			v5.04c0,6.794-0.164,8.191,3.809,8.986v0.41h-8.191v-0.41c3.698-0.384,3.561-2.904,3.561-9.123v-4.109
			c0-2.739-0.438-3.808-3.916-4.574v-0.412h4.52L368.425,60.009z"/>
	</g>
	<rect x="190.111" y="22.05" width="0.824" height="56.574"/>
	<rect x="196.75" y="68.085" width="187.331" height="0.824"/>
	<g>
		<path d="M202.984,72.368h0.07l0.123,1.645l-0.123,0.026c-0.309-1.091-0.792-1.135-1.804-1.135h-0.528v4.064
			c0,1.091,0.053,1.382,1.231,1.522v0.132h-3.237v-0.132c1.179-0.141,1.231-0.431,1.231-1.522v-4.064h-0.528
			c-1.011,0-1.496,0.043-1.803,1.135l-0.123-0.026l0.123-1.645h0.07l0.088,0.079c0.22,0.202,0.255,0.193,0.546,0.193h4.029
			c0.29,0,0.325,0.009,0.545-0.193L202.984,72.368z"/>
		<path d="M206.281,77.181c0,0.968,0.018,1.144,1.17,1.311v0.132h-3.035v-0.132c1.057-0.141,1.064-0.405,1.091-1.311v-3.097
			c-0.026-0.907-0.034-1.17-1.091-1.312v-0.132h3.035v0.132c-1.152,0.167-1.17,0.343-1.17,1.312v1.275h3.537v-1.275
			c0-0.968-0.018-1.144-1.17-1.312v-0.132h3.035v0.132c-1.057,0.141-1.064,0.405-1.092,1.312v3.097
			c0.027,0.906,0.035,1.17,1.092,1.311v0.132h-3.035v-0.132c1.152-0.167,1.17-0.343,1.17-1.311v-1.452h-3.537V77.181z"/>
		<path d="M213.044,78.492c1.057-0.141,1.065-0.405,1.092-1.311v-3.097c-0.026-0.907-0.035-1.17-1.092-1.312v-0.132h4.725
			l-0.105,1.355h-0.132c-0.062-1.135-0.879-1.145-1.769-1.145h-0.854v2.508h0.916c0.659,0,1.16-0.053,1.258-0.809h0.132v1.962
			h-0.132c-0.115-0.774-0.599-0.783-1.258-0.783h-0.916v1.443c0,0.519-0.123,1.24,1.32,1.24c1.108,0,1.653-0.422,1.873-1.531h0.132
			c-0.008,0.668-0.123,1.214-0.298,1.742h-4.893V78.492z"/>
		<path d="M229.662,75.632c0,1.891-1.374,3.097-3.222,3.097c-1.855,0-3.22-1.206-3.22-3.105c0-1.875,1.373-3.088,3.212-3.088
			C228.685,72.535,229.662,74.066,229.662,75.632z M224.241,75.412c0,1.364,0.722,3.105,2.306,3.105
			c1.451,0,2.094-1.478,2.094-2.736c-0.026-1.557-0.934-3.036-2.279-3.036C224.849,72.746,224.241,74.225,224.241,75.412z"/>
		<path d="M235.342,74.576v2.147h-0.132c-0.07-0.889-0.528-0.871-1.267-0.871h-0.959v1.329c0,0.941,0.043,1.126,1.268,1.311v0.132
			h-3.133v-0.132c1.056-0.141,1.064-0.405,1.091-1.311v-3.097c-0.026-0.907-0.035-1.17-1.091-1.312v-0.132h4.654l-0.141,1.39h-0.132
			c-0.053-1.135-0.793-1.179-1.716-1.179h-0.801v2.631h0.959c0.738,0,1.196-0.07,1.267-0.906H235.342z"/>
		<path d="M241.297,74.576v2.147h-0.133c-0.07-0.889-0.528-0.871-1.267-0.871h-0.959v1.329c0,0.941,0.044,1.126,1.267,1.311v0.132
			h-3.132v-0.132c1.056-0.141,1.064-0.405,1.091-1.311v-3.097c-0.026-0.907-0.035-1.17-1.091-1.312v-0.132h4.654l-0.141,1.39h-0.132
			c-0.054-1.135-0.792-1.179-1.716-1.179h-0.801v2.631h0.959c0.738,0,1.196-0.07,1.267-0.906H241.297z"/>
		<path d="M245.042,77.181c0.027,0.906,0.036,1.17,1.091,1.311v0.132h-2.955v-0.132c1.056-0.141,1.064-0.405,1.09-1.311v-3.097
			c-0.025-0.907-0.034-1.17-1.09-1.312v-0.132h2.955v0.132c-1.055,0.141-1.063,0.405-1.091,1.312V77.181z"/>
		<path d="M253.215,74.453h-0.133c-0.167-0.994-0.748-1.707-1.803-1.707c-1.61,0-2.516,1.32-2.516,2.833
			c0,1.733,1.327,2.938,2.604,2.938c1.152,0,1.61-0.844,2.006-1.794l0.123,0.053c-0.105,0.537-0.272,1.064-0.484,1.575
			c-0.562,0.272-1.169,0.378-1.794,0.378c-1.839,0-3.476-1.056-3.476-3.044c0-1.566,1.223-3.15,3.546-3.15
			c0.668,0,1.346,0.132,1.927,0.476V74.453z"/>
		<path d="M254.901,78.492c1.056-0.141,1.064-0.405,1.091-1.311v-3.097c-0.026-0.907-0.035-1.17-1.091-1.312v-0.132h4.724
			l-0.104,1.355h-0.132c-0.062-1.135-0.88-1.145-1.77-1.145h-0.853v2.508h0.915c0.659,0,1.161-0.053,1.258-0.809h0.132v1.962h-0.132
			c-0.114-0.774-0.599-0.783-1.258-0.783h-0.915v1.443c0,0.519-0.124,1.24,1.319,1.24c1.108,0,1.654-0.422,1.875-1.531h0.132
			c-0.01,0.668-0.124,1.214-0.3,1.742h-4.892V78.492z"/>
		<path d="M271.519,75.632c0,1.891-1.373,3.097-3.221,3.097c-1.856,0-3.22-1.206-3.22-3.105c0-1.875,1.372-3.088,3.211-3.088
			C270.542,72.535,271.519,74.066,271.519,75.632z M266.099,75.412c0,1.364,0.721,3.105,2.305,3.105
			c1.452,0,2.094-1.478,2.094-2.736c-0.025-1.557-0.932-3.036-2.278-3.036C266.705,72.746,266.099,74.225,266.099,75.412z"/>
		<path d="M277.198,74.576v2.147h-0.132c-0.069-0.889-0.527-0.871-1.267-0.871h-0.959v1.329c0,0.941,0.045,1.126,1.268,1.311v0.132
			h-3.133v-0.132c1.056-0.141,1.065-0.405,1.092-1.311v-3.097c-0.026-0.907-0.036-1.17-1.092-1.312v-0.132h4.654l-0.141,1.39h-0.132
			c-0.053-1.135-0.792-1.179-1.716-1.179h-0.801v2.631h0.959c0.739,0,1.197-0.07,1.267-0.906H277.198z"/>
		<path d="M283.838,76.116c-0.149,0.44-0.536,1.355-0.536,1.777c0,0.537,0.606,0.537,1.003,0.598v0.132h-2.41v-0.132
			c0.782-0.211,0.862-0.387,1.135-1.074l0.994-2.596l0.527-1.434c0.079-0.229,0.194-0.44,0.097-0.607
			c0.238-0.097,0.458-0.255,0.643-0.475l1.936,5.155c0.237,0.643,0.387,0.898,1.091,1.03v0.132h-2.586v-0.132
			c0.308-0.071,0.677-0.167,0.677-0.563c0-0.37-0.334-1.197-0.562-1.812H283.838z M284.814,73.424l-0.826,2.288h1.742
			L284.814,73.424z"/>
		<path d="M294.896,74.453h-0.132c-0.167-0.994-0.748-1.707-1.804-1.707c-1.61,0-2.516,1.32-2.516,2.833
			c0,1.733,1.328,2.938,2.604,2.938c1.153,0,1.61-0.844,2.007-1.794l0.123,0.053c-0.105,0.537-0.272,1.064-0.484,1.575
			c-0.563,0.272-1.17,0.378-1.795,0.378c-1.839,0-3.475-1.056-3.475-3.044c0-1.566,1.222-3.15,3.546-3.15
			c0.668,0,1.346,0.132,1.926,0.476V74.453z"/>
		<path d="M298.033,76.116c-0.148,0.44-0.536,1.355-0.536,1.777c0,0.537,0.607,0.537,1.004,0.598v0.132h-2.411v-0.132
			c0.783-0.211,0.862-0.387,1.135-1.074l0.994-2.596l0.527-1.434c0.08-0.229,0.194-0.44,0.098-0.607
			c0.237-0.097,0.457-0.255,0.642-0.475l1.936,5.155c0.238,0.643,0.388,0.898,1.092,1.03v0.132h-2.587v-0.132
			c0.308-0.071,0.678-0.167,0.678-0.563c0-0.37-0.334-1.197-0.563-1.812H298.033z M299.012,73.424l-0.828,2.288h1.742
			L299.012,73.424z"/>
		<path d="M303.47,72.693l2.129-0.07c3.87-0.123,4.275,2.112,4.275,3.026c0,1.259-0.81,3.019-3.836,2.992l-2.622-0.018v-0.132
			c1.056-0.141,1.065-0.405,1.092-1.311v-3.053c-0.026-0.906-0.036-1.17-1.038-1.311V72.693z M305.281,77.269
			c0,0.589,0.105,1.152,1.197,1.152c1.011,0,2.375-0.633,2.375-2.639c0-2.111-1.663-2.991-3.572-2.982V77.269z"/>
		<path d="M311.482,78.492c1.055-0.141,1.063-0.405,1.091-1.311v-3.097c-0.027-0.907-0.036-1.17-1.091-1.312v-0.132h4.724
			l-0.104,1.355h-0.133c-0.062-1.135-0.88-1.145-1.769-1.145h-0.853v2.508h0.914c0.66,0,1.162-0.053,1.259-0.809h0.132v1.962h-0.132
			c-0.114-0.774-0.599-0.783-1.259-0.783h-0.914v1.443c0,0.519-0.124,1.24,1.319,1.24c1.108,0,1.653-0.422,1.874-1.531h0.132
			c-0.009,0.668-0.123,1.214-0.3,1.742h-4.891V78.492z"/>
		<path d="M322.135,77.339l1.593-3.501c0.22-0.484,0.343-0.924,0.149-1.056l0.017-0.141h1.937v0.132
			c-0.562,0.115-0.906,0.326-0.871,0.942l0.192,3.203c0.099,1.223,0.099,1.416,1.039,1.575v0.132h-2.894v-0.132
			c0.677-0.106,1.108-0.185,1.063-0.959l-0.237-3.845h-0.018l-2.243,4.936h-0.097l-2.086-4.733h-0.018
			c-0.141,1.346-0.211,2.323-0.273,3.687c-0.016,0.343-0.008,0.739,1.057,0.915v0.132h-2.455v-0.132
			c0.783-0.132,0.862-0.51,0.985-1.223l0.326-2.472l0.114-1.197c0.053-0.581-0.449-0.783-0.968-0.827v-0.132h1.901l0.008,0.097
			c-0.193,0.203,0.044,0.73,0.105,0.871L322.135,77.339z"/>
		<path d="M329.311,77.181c0.026,0.906,0.036,1.17,1.092,1.311v0.132h-2.956v-0.132c1.056-0.141,1.064-0.405,1.091-1.311v-3.097
			c-0.026-0.907-0.035-1.17-1.091-1.312v-0.132h2.956v0.132c-1.056,0.141-1.065,0.405-1.092,1.312V77.181z"/>
		<path d="M337.482,74.453h-0.132c-0.166-0.994-0.747-1.707-1.803-1.707c-1.609,0-2.517,1.32-2.517,2.833
			c0,1.733,1.329,2.938,2.604,2.938c1.151,0,1.609-0.844,2.006-1.794l0.122,0.053c-0.104,0.537-0.271,1.064-0.482,1.575
			c-0.563,0.272-1.171,0.378-1.795,0.378c-1.839,0-3.476-1.056-3.476-3.044c0-1.566,1.224-3.15,3.546-3.15
			c0.668,0,1.347,0.132,1.926,0.476V74.453z"/>
		<path d="M343.938,76.116c-0.149,0.44-0.537,1.355-0.537,1.777c0,0.537,0.607,0.537,1.004,0.598v0.132h-2.411v-0.132
			c0.783-0.211,0.862-0.387,1.135-1.074l0.994-2.596l0.528-1.434c0.079-0.229,0.193-0.44,0.097-0.607
			c0.237-0.097,0.457-0.255,0.643-0.475l1.935,5.155c0.238,0.643,0.389,0.898,1.093,1.03v0.132h-2.588v-0.132
			c0.309-0.071,0.678-0.167,0.678-0.563c0-0.37-0.334-1.197-0.563-1.812H343.938z M344.915,73.424l-0.828,2.288h1.742
			L344.915,73.424z"/>
		<path d="M353.402,74.576v2.147h-0.132c-0.07-0.889-0.528-0.871-1.268-0.871h-0.959v1.329c0,0.941,0.045,1.126,1.268,1.311v0.132
			h-3.133v-0.132c1.057-0.141,1.065-0.405,1.092-1.311v-3.097c-0.026-0.907-0.035-1.17-1.092-1.312v-0.132h4.655l-0.142,1.39h-0.132
			c-0.053-1.135-0.792-1.179-1.716-1.179h-0.801v2.631h0.959c0.739,0,1.197-0.07,1.268-0.906H353.402z"/>
		<path d="M359.356,74.576v2.147h-0.132c-0.07-0.889-0.528-0.871-1.267-0.871h-0.959v1.329c0,0.941,0.044,1.126,1.267,1.311v0.132
			h-3.133v-0.132c1.057-0.141,1.065-0.405,1.092-1.311v-3.097c-0.026-0.907-0.035-1.17-1.092-1.312v-0.132h4.654l-0.141,1.39h-0.132
			c-0.052-1.135-0.791-1.179-1.716-1.179h-0.8v2.631h0.959c0.738,0,1.196-0.07,1.267-0.906H359.356z"/>
		<path d="M362.672,76.116c-0.149,0.44-0.537,1.355-0.537,1.777c0,0.537,0.607,0.537,1.003,0.598v0.132h-2.411v-0.132
			c0.784-0.211,0.862-0.387,1.136-1.074l0.994-2.596l0.527-1.434c0.08-0.229,0.193-0.44,0.098-0.607
			c0.237-0.097,0.457-0.255,0.642-0.475l1.936,5.155c0.238,0.643,0.388,0.898,1.092,1.03v0.132h-2.587v-0.132
			c0.308-0.071,0.677-0.167,0.677-0.563c0-0.37-0.333-1.197-0.562-1.812H362.672z M363.648,73.424l-0.827,2.288h1.742
			L363.648,73.424z"/>
		<path d="M369.928,77.181c0.027,0.906,0.035,1.17,1.092,1.311v0.132h-2.956v-0.132c1.055-0.141,1.064-0.405,1.09-1.311v-3.097
			c-0.025-0.907-0.035-1.17-1.09-1.312v-0.132h2.956v0.132c-1.057,0.141-1.064,0.405-1.092,1.312V77.181z"/>
		<path d="M373.508,74.453c0-1.346-0.045-1.548-1.03-1.636v-0.124l2.147-0.07c2.217-0.07,2.393,1.012,2.393,1.434
			c0,0.739-0.457,1.162-1.091,1.443l0.045,0.062c0.678,1.188,1.521,2.701,2.973,3l-0.025,0.132c-0.934-0.044-1.619-0.018-2.13-0.545
			c-0.58-0.607-1.038-1.381-1.223-1.76c-0.352-0.73-0.669-0.519-1.284-0.625v1.417c0,0.968,0.017,1.144,1.223,1.311v0.132h-3.088
			v-0.132c1.055-0.141,1.063-0.405,1.091-1.311V74.453z M374.282,75.615c0.845-0.009,1.83-0.396,1.83-1.373
			c0-1.029-0.907-1.442-1.83-1.434V75.615z"/>
		<path d="M382.954,74.189h-0.141c-0.141-0.713-0.369-1.399-1.24-1.399c-0.563,0-1.029,0.387-1.029,0.968
			c0,1.522,2.771,1.469,2.771,3.247c0,1.135-1.126,1.724-2.138,1.724c-0.537,0-1.1-0.158-1.549-0.449l-0.255-1.496h0.158
			c0.22,0.845,0.81,1.68,1.777,1.68c0.65,0,1.161-0.387,1.161-1.073c0-1.566-2.691-1.425-2.691-3.185c0-1.03,1.02-1.681,1.961-1.681
			c0.449,0,0.897,0.132,1.285,0.343L382.954,74.189z"/>
	</g>
</g>
<g id="Layer_2">
</g>
</svg>
